<?xml version="1.0" standalone="no"?>
<!DOCTYPE svg PUBLIC "-//W3C//DTD SVG 20010904//EN" "http://www.w3.org/TR/2001/REC-SVG-20010904/DTD/svg10.dtd">
<svg version="1.0" xmlns="http://www.w3.org/2000/svg"
  width="896.000000pt" height="133.000000pt" viewBox="0 0 896.000000 133.000000"
  preserveAspectRatio="xMidYMid meet">

  <g transform="translate(0.000000,133.000000) scale(0.100000,-0.100000)" stroke="none">
    <path
      d="M842 1238 c-6 -6 -12 -22 -12 -35 0 -22 4 -23 71 -23 l70 0 -3 33
c-3 31 -4 32 -58 35 -34 2 -60 -2 -68 -10z" />
    <path d="M830 1110 l0 -40 70 0 70 0 0 40 0 40 -70 0 -70 0 0 -40z" />
    <path
      d="M732 1018 c-6 -6 -12 -29 -12 -50 l0 -38 181 0 180 0 -3 48 -3 47
-165 3 c-120 2 -169 -1 -178 -10z" />
    <path
      d="M5185 990 c-4 -6 7 -10 24 -10 l31 0 0 -309 0 -310 -32 -4 c-18 -2
19 -4 82 -4 63 0 102 2 85 6 l-30 6 -3 98 c-2 74 0 97 10 97 7 -1 43 -44 80
-98 65 -92 67 -97 45 -104 -12 -3 23 -6 78 -6 62 -1 92 2 80 8 -22 8 -199 255
-193 268 8 21 111 102 136 108 51 11 47 12 -33 12 -44 0 -72 -2 -62 -5 9 -2
17 -10 17 -18 0 -14 -135 -145 -150 -145 -6 0 -10 79 -10 210 l0 210 -74 0
c-41 0 -78 -4 -81 -10z" />
    <path
      d="M7542 944 c-28 -19 -28 -58 -1 -85 20 -20 48 -19 77 3 18 15 15 63
-6 81 -23 21 -41 21 -70 1z" />
    <path
      d="M1720 901 c0 -21 -3 -60 -7 -86 -4 -33 -3 -46 4 -42 6 4 14 29 18 57
4 27 16 61 27 75 17 22 27 25 84 25 l64 0 0 -284 0 -285 -37 -4 c-21 -2 23 -4
97 -4 74 0 118 2 98 4 l-38 4 0 285 0 284 54 0 c79 0 103 -12 115 -57 6 -21
11 -54 11 -73 0 -23 3 -31 10 -24 6 6 8 40 4 87 l-7 77 -248 0 -249 0 0 -39z" />
    <path
      d="M5908 933 l42 -4 0 -263 c0 -284 -1 -289 -55 -305 -23 -7 -9 -9 60
-9 81 0 87 1 57 11 -18 7 -37 19 -42 27 -5 8 -10 125 -10 260 0 154 4 240 10
230 5 -8 53 -130 107 -272 68 -179 103 -258 113 -258 10 0 29 39 57 123 24 67
67 190 97 272 l55 150 0 -267 1 -267 -42 -4 c-24 -2 20 -4 97 -4 77 0 121 2
98 4 l-43 4 0 284 0 284 43 4 c23 2 -4 4 -59 5 l-101 2 -78 -221 -78 -222 -27
69 c-15 38 -53 138 -85 222 l-57 152 -102 -2 c-55 -1 -82 -3 -58 -5z" />
    <path
      d="M647 883 c-4 -3 -7 -55 -7 -114 l0 -107 116 49 c64 27 128 49 143 49
14 0 79 -22 144 -50 65 -27 120 -50 123 -50 6 0 5 182 -2 208 l-6 22 -252 0
c-139 0 -256 -3 -259 -7z" />
    <path
      d="M2366 750 c-43 -14 -66 -39 -66 -75 0 -42 16 -55 69 -55 44 0 45 0
23 16 -50 35 -13 109 54 107 55 -2 64 -16 64 -98 l0 -72 -60 -6 c-86 -7 -151
-42 -169 -89 -12 -33 -11 -41 5 -75 36 -73 137 -81 214 -17 22 19 30 22 30 11
0 -9 12 -25 27 -37 50 -39 134 -7 132 49 -1 25 -1 25 -15 -6 -9 -22 -21 -33
-34 -33 -19 0 -20 7 -21 138 0 210 -22 245 -152 249 -40 1 -85 -2 -101 -7z
m144 -259 c0 -58 -3 -72 -25 -95 -31 -33 -79 -36 -96 -5 -28 53 11 152 65 162
56 11 56 12 56 -62z" />
    <path
      d="M2943 741 c-23 -11 -48 -32 -57 -48 l-15 -28 -1 43 0 42 -82 -2 c-46
0 -68 -3 -50 -5 l32 -4 0 -189 0 -189 -32 -4 c-18 -2 19 -4 82 -4 63 0 100 2
83 4 l-33 4 0 117 c0 132 10 178 45 221 32 37 70 47 101 26 24 -15 24 -17 24
-190 l0 -174 -27 -4 c-16 -2 22 -4 82 -4 61 0 98 2 83 4 l-28 4 0 135 c0 116
3 140 21 175 38 76 131 87 144 17 3 -18 5 -98 3 -178 l-3 -145 -30 -6 c-16 -4
22 -6 85 -6 63 0 101 2 83 4 l-32 4 -3 170 -3 171 -33 29 c-55 50 -159 36
-214 -29 l-25 -30 -14 31 c-26 58 -106 74 -186 38z" />
    <path
      d="M3606 750 c-44 -13 -66 -39 -66 -76 0 -39 21 -54 77 -54 37 0 37 0
15 16 -48 33 -12 109 52 107 57 -2 66 -15 66 -98 l0 -72 -60 -6 c-68 -6 -145
-39 -161 -69 -16 -30 -13 -85 5 -113 9 -13 34 -30 56 -36 50 -15 112 1 153 39
21 20 27 22 27 10 0 -9 12 -26 27 -38 50 -39 134 -7 132 49 -1 25 -1 25 -15
-6 -9 -22 -21 -33 -34 -33 -19 0 -20 7 -20 143 0 163 -11 200 -70 229 -38 19
-133 23 -184 8z m144 -260 c0 -62 -3 -74 -25 -95 -30 -31 -80 -34 -95 -6 -28
52 8 147 60 162 58 16 60 15 60 -61z" />
    <path
      d="M4180 747 c-13 -7 -35 -28 -47 -46 l-23 -34 0 42 0 41 -82 -2 c-46 0
-68 -3 -50 -5 l32 -4 0 -189 0 -189 -32 -4 c-18 -2 21 -4 87 -4 66 0 104 2 85
6 l-35 6 0 135 c0 120 3 140 23 177 27 51 53 68 82 53 26 -14 28 -85 3 -112
-15 -17 -15 -18 14 -18 40 0 83 34 83 66 0 32 -25 80 -45 88 -26 10 -68 7 -95
-7z" />
    <path
      d="M4433 745 c-17 -7 -39 -25 -48 -39 -14 -21 -15 -29 -3 -53 11 -24 20
-28 63 -31 48 -3 49 -2 28 13 -39 28 -26 97 21 109 27 7 76 -8 88 -27 4 -7 8
-42 8 -78 l0 -66 -59 -6 c-80 -7 -145 -37 -166 -77 -32 -61 2 -130 72 -145 42
-9 110 11 139 41 l25 24 11 -24 c23 -52 113 -58 144 -11 9 13 14 32 11 42 -3
14 -7 10 -17 -14 -7 -21 -19 -33 -30 -33 -16 0 -18 14 -21 154 -4 174 -14 200
-80 223 -46 16 -147 15 -186 -2z m157 -254 c0 -60 -3 -71 -26 -95 -33 -33 -78
-35 -95 -5 -28 53 11 152 65 162 56 11 56 12 56 -62z" />
    <path
      d="M4903 734 c-74 -36 -97 -86 -91 -197 6 -127 50 -181 156 -194 87 -10
180 49 170 109 -4 22 -5 22 -12 3 -27 -70 -58 -95 -116 -95 -75 0 -95 41 -95
195 1 157 33 210 111 185 54 -18 70 -94 25 -120 -12 -7 -8 -9 20 -10 47 0 72
20 72 58 0 38 -18 61 -60 79 -52 21 -122 16 -180 -13z" />
    <path
      d="M6719 744 c-49 -20 -66 -52 -48 -90 12 -25 20 -29 64 -32 48 -3 49
-2 28 13 -39 28 -26 97 21 109 27 7 76 -8 88 -27 4 -7 8 -42 8 -78 l0 -66 -59
-6 c-80 -7 -145 -37 -166 -77 -32 -61 2 -130 72 -145 42 -9 110 11 139 41 l25
24 11 -24 c23 -52 113 -58 144 -11 9 13 14 32 11 42 -3 14 -7 10 -17 -14 -7
-21 -19 -33 -30 -33 -16 0 -18 14 -21 154 -4 174 -14 200 -80 223 -47 16 -147
15 -190 -3z m161 -251 c0 -59 -3 -70 -27 -95 -17 -18 -37 -28 -55 -28 -77 0
-54 167 26 183 56 11 56 12 56 -60z" />
    <path
      d="M7314 750 c-11 -4 -33 -22 -47 -40 l-27 -32 0 36 0 36 -82 -2 c-46 0
-68 -3 -50 -5 l32 -4 -2 -187 -3 -187 -30 -6 c-16 -4 24 -6 90 -6 66 0 103 2
83 4 l-38 4 1 127 c0 94 4 138 17 171 36 92 112 105 112 19 0 -25 -7 -49 -17
-60 -15 -17 -15 -18 14 -18 46 0 77 30 77 73 0 68 -62 105 -130 77z" />
    <path
      d="M7955 741 c-22 -12 -48 -33 -57 -48 l-17 -28 -1 43 0 42 -82 -2 c-46
0 -68 -3 -50 -5 l32 -4 0 -189 0 -189 -32 -4 c-18 -2 19 -4 82 -4 63 0 102 2
85 6 l-30 6 -3 113 c-3 126 7 177 43 220 32 38 69 48 101 27 24 -15 24 -17 24
-190 l0 -174 -27 -4 c-16 -2 24 -4 87 -4 63 0 100 2 83 4 l-33 4 0 142 c0 211
-16 247 -113 254 -38 3 -62 -1 -92 -16z" />
    <path
      d="M8329 744 c-49 -20 -66 -52 -48 -90 12 -25 20 -29 64 -32 48 -3 49
-2 28 13 -39 28 -26 97 21 109 27 7 76 -8 88 -27 4 -7 8 -42 8 -79 l0 -68 -38
0 c-54 0 -137 -27 -169 -54 -38 -32 -40 -102 -5 -139 44 -47 147 -43 198 9
l25 24 11 -24 c31 -69 158 -48 158 26 0 29 -17 20 -23 -12 -8 -37 -42 -42 -51
-7 -3 12 -6 83 -6 158 0 155 -10 180 -78 199 -53 14 -141 12 -183 -6z m161
-251 c0 -59 -3 -70 -27 -95 -32 -33 -77 -38 -93 -9 -13 26 -13 87 1 114 17 31
57 53 102 56 15 1 17 -8 17 -66z" />
    <path
      d="M7498 743 l32 -4 0 -189 0 -189 -32 -4 c-18 -2 19 -4 82 -4 63 0 100
2 83 4 l-33 4 0 195 0 194 -82 -2 c-46 0 -68 -3 -50 -5z" />
    <path
      d="M682 638 c-106 -45 -197 -89 -202 -98 -6 -12 5 -40 43 -103 28 -48
55 -87 60 -87 4 0 20 9 36 21 68 50 154 43 222 -18 l39 -35 0 201 c0 110 -1
201 -2 201 -2 0 -90 -37 -196 -82z" />
    <path
      d="M920 519 l0 -201 41 35 c70 61 158 67 229 17 17 -12 33 -21 34 -19 2
2 26 41 55 86 53 85 60 107 39 116 -19 8 -318 133 -360 151 l-38 16 0 -201z" />
    <path
      d="M335 356 c-26 -19 -11 -47 31 -58 16 -4 45 -23 64 -43 66 -68 139
-66 216 5 57 53 83 52 145 -4 26 -24 61 -46 77 -49 46 -9 100 11 147 54 55 51
83 51 139 -1 79 -73 148 -73 226 -1 24 22 56 42 71 45 20 4 29 12 29 25 0 54
-76 44 -145 -20 -55 -51 -83 -51 -139 2 -79 72 -143 72 -222 -1 -57 -53 -83
-52 -145 4 -27 24 -61 46 -76 49 -49 10 -108 -12 -149 -54 -52 -53 -79 -52
-144 6 -28 25 -57 45 -65 45 -7 0 -19 2 -27 5 -7 3 -22 -1 -33 -9z" />
    <path
      d="M644 196 c-23 -14 -44 -32 -47 -40 -3 -8 -23 -20 -44 -26 -42 -14
-54 -26 -46 -47 6 -16 66 -17 96 -2 12 7 39 27 60 45 20 19 46 34 57 34 10 0
42 -20 70 -45 48 -43 54 -45 110 -45 56 0 62 2 110 45 28 25 58 45 66 45 23 0
54 -19 97 -57 33 -29 44 -34 80 -31 34 2 42 7 42 23 0 14 -10 23 -32 30 -18 6
-48 25 -65 42 -42 39 -69 53 -107 53 -44 0 -82 -17 -121 -55 -54 -52 -84 -51
-145 6 -60 55 -119 63 -181 25z" />
  </g>
</svg>